<svg width="211" height="152" viewBox="0 0 211 152" fill="none" xmlns="http://www.w3.org/2000/svg">
<path fill-rule="evenodd" clip-rule="evenodd" d="M38.468 2.24196C36.4731 4.03353 35.0522 7.98535 31.3953 21.9193C28.8784 31.5079 26.9503 40.4419 27.1097 41.7711C27.3509 43.764 28.3293 44.4455 32.6837 45.6522C37.1258 46.8828 37.9179 47.4487 37.6658 49.2154C37.3918 51.1375 36.8418 51.287 31.1961 50.9701C27.8032 50.7808 23.4608 51.1415 21.5467 51.7732C13.9848 54.2693 7.9714 64.9599 7.9714 75.9096C7.9714 80.5031 7.85083 80.7104 5.18141 80.7104C3.64691 80.7104 1.85335 81.2485 1.19571 81.9061C0.313874 82.7879 0 91.7767 0 116.161C0 144.265 0.223199 149.405 1.48766 150.454C2.46515 151.265 5.2123 151.547 9.48895 151.275C15.1935 150.911 16.3942 150.469 19.1513 147.711C22.1306 144.732 22.3229 144.079 22.7304 135.555L23.1619 126.546H33.7021H44.2412L66.9219 103.944L89.6025 81.3411L122.414 90.0768C140.459 94.8815 156.267 98.664 157.542 98.4806C159.228 98.2385 160.118 97.1962 160.809 94.6603C161.331 92.7422 161.867 91.0264 161.999 90.847C162.131 90.6677 165.614 91.4678 169.739 92.6246C183.074 96.3672 187.01 93.633 190.773 78.0131C192.471 70.9654 192.667 70.6794 201.374 62.5077C208.814 55.5268 210.246 53.6874 210.246 51.1156C210.246 49.4296 209.46 47.1299 208.502 46.0059C207.144 44.4136 188.663 39.1057 124.858 21.9811C79.8136 9.89151 42.5105 0 41.9614 0C41.4134 0 39.841 1.00938 38.468 2.24196ZM58.7651 11.9162C78.1954 17.2132 157.15 38.4341 181.349 44.865C192.036 47.7048 201.143 50.3683 201.589 50.7838C202.034 51.1993 199.221 54.4387 195.339 57.9819L188.279 64.4248L168.135 58.9983L147.989 53.5708L142.457 59.7366L136.925 65.9035L122.02 61.9188C62.0513 45.8903 35.3382 38.6603 35.0602 38.3823C34.8828 38.2039 36.3655 32.0739 38.3554 24.7592C43.1392 7.17127 42.8881 7.9714 43.6364 7.9714C43.9971 7.9714 50.8057 9.74702 58.7651 11.9162ZM52.0632 22.9805C49.5582 23.9521 48.9274 28.6004 51.0169 30.6899C52.6531 32.326 56.296 32.1945 57.7468 30.4458C60.7141 26.8706 56.4564 21.2767 52.0632 22.9805ZM69.949 29.0956C67.154 31.8906 69.2595 36.8677 73.2372 36.8677C74.3881 36.8677 75.8678 36.3296 76.5254 35.672C77.183 35.0144 77.7211 33.5347 77.7211 32.3838C77.7211 31.2329 77.183 29.7532 76.5254 29.0956C75.8678 28.438 74.3881 27.8999 73.2372 27.8999C72.0863 27.8999 70.6066 28.438 69.949 29.0956ZM88.8811 34.0777C86.0861 36.8727 88.1915 41.8498 92.1693 41.8498C93.3201 41.8498 94.7998 41.3118 95.4575 40.6541C96.1151 39.9965 96.6532 38.5168 96.6532 37.3659C96.6532 36.215 96.1151 34.7354 95.4575 34.0777C94.7998 33.4201 93.3201 32.882 92.1693 32.882C91.0184 32.882 89.5387 33.4201 88.8811 34.0777ZM138.531 73.7135C139.368 73.7254 142.387 71.0839 145.24 67.8426L150.426 61.9497L155.529 63.2959C158.335 64.0362 160.757 64.7825 160.912 64.9539C161.195 65.2678 154.488 89.9223 153.97 90.4704C153.817 90.6318 140.971 87.3456 125.422 83.1676C109.873 78.9896 87.9594 73.1276 76.7247 70.1423C65.49 67.157 54.9528 64.3033 53.3087 63.8001C51.6646 63.2979 48.4442 62.4041 46.1524 61.8142L41.9843 60.741L43.4969 56.029C44.3289 53.4363 45.156 50.8216 45.3343 50.2188C45.5396 49.5263 62.5017 53.6515 91.3343 61.4067C116.455 68.1634 137.693 73.7015 138.531 73.7135ZM32.1586 58.7034C34.1365 59.4557 34.4763 60.1492 34.1056 62.6721C33.5695 66.327 33.4599 66.2732 50.985 70.8647C57.7438 72.6344 63.4752 74.2446 63.7233 74.4429C63.9715 74.6402 57.4748 81.5125 49.2881 89.7131L34.4016 104.625H28.7847H23.1679L22.7344 96.4041C22.2701 87.6156 20.4596 83.322 16.716 82.1343C14.8577 81.5444 14.7311 80.9306 15.2692 75.1613C16.4729 62.2725 23.5096 55.4152 32.1586 58.7034ZM178.013 69.4C185.197 71.2045 185.209 71.2334 182.523 80.2102C180.414 87.2549 179.712 87.5459 170.726 85.1136L164.252 83.3609L164.859 80.1215C165.194 78.3389 166.155 74.5664 166.995 71.7386C168.176 67.7609 168.881 66.7335 170.106 67.2029C170.976 67.5377 174.535 68.5261 178.013 69.4ZM78.4684 78.2074C79.701 78.5621 80.7104 79.1629 80.7104 79.5436C80.7104 79.9252 73.7623 87.1732 65.2708 95.6518L49.8322 111.066L47.104 108.339L44.3768 105.611L58.788 91.1738C67.6921 82.2538 73.7783 76.8941 74.7129 77.1502C75.5459 77.3773 77.2359 77.8526 78.4684 78.2074ZM13.8443 89.0534C14.6464 90.019 14.9015 98.1478 14.7142 116.704L14.4482 142.987L11.2098 143.299L7.9714 143.612V115.648V87.6854H10.3409C11.6432 87.6854 13.2206 88.3011 13.8443 89.0534ZM28.3981 116.083C28.3981 119.224 28.1251 119.571 25.6579 119.571C23.1908 119.571 22.9178 119.224 22.9178 116.083C22.9178 112.943 23.1908 112.596 25.6579 112.596C28.1251 112.596 28.3981 112.943 28.3981 116.083ZM42.645 115.175C43.0276 117.853 40.5296 119.919 37.912 119.088C35.9042 118.451 35.0622 114.734 36.5817 113.215C38.0903 111.705 42.346 113.081 42.645 115.175Z" fill="white"/>
</svg>
