<svg width="168" height="223" viewBox="0 0 168 223" fill="none" xmlns="http://www.w3.org/2000/svg">
<path fill-rule="evenodd" clip-rule="evenodd" d="M46.5809 2.02218C44.5242 3.10829 41.6097 5.85643 40.1041 8.13027L37.3659 12.2644L37.056 37.9283L36.7461 63.5933L33.5685 61.7289C29.5171 59.3515 21.2547 58.2644 17.6865 59.6384L14.9464 60.6927V79.9824C14.9464 98.2658 14.769 100.071 11.5466 114.632C9.67628 123.081 7.86677 132.236 7.525 134.976C6.70195 141.572 8.66989 151.859 13.9111 168.365L18.1857 181.827L9.09337 199.992C4.09232 209.982 0 218.818 0 219.626C0 221.956 3.9289 223.65 5.53215 222.012C6.25456 221.272 11.1789 212.004 16.4749 201.414L26.1033 182.159L20.8771 165.542C13.8732 143.273 13.654 139.128 18.3571 117.856C21.6981 102.742 21.9213 100.636 21.9213 84.2262V66.721H24.4622C28.8206 66.721 32.9159 69.5728 34.9317 74.0109C36.6027 77.6917 36.8269 80.7188 36.8458 99.8571L36.8677 121.534L45.0882 129.75C49.609 134.269 55.0046 140.88 57.0762 144.442C60.8576 150.942 64.8573 162.629 66.4207 171.747C67.3822 177.354 69.6321 179.488 72.2727 177.298C74.5286 175.426 73.6507 166.436 70.1672 155.714C66.0062 142.908 56.575 128.382 48.3475 122.106L44.8391 119.43V66.5706V13.7112L48.227 10.3234L51.6148 6.93555H89.18H126.745L130.133 10.3234L133.521 13.7112V39.1699C133.521 60.611 133.288 64.7591 132.046 65.4546C131.235 65.9079 129.442 67.8111 128.06 69.6834C123.72 75.5663 125.078 86.1055 130.683 90.0314L132.838 91.541L129.349 95.8216C124.499 101.769 123.557 103.841 123.557 108.555C123.557 113.664 125.598 117.725 129.6 120.575L132.685 122.771L129.166 126.382C124.495 131.176 122.208 136.777 123.063 141.331C123.908 145.837 126.888 150.031 130.61 151.956C133.162 153.275 133.521 154.005 133.521 157.873C133.521 160.299 132.985 163.46 132.33 164.897C130.094 169.804 127.422 170.349 105.605 170.349C85.1265 170.349 81.7068 170.896 81.7068 174.17C81.7068 178.017 83.4007 178.321 104.856 178.321C127 178.321 130.252 177.759 135.382 173.042C138.863 169.842 141.445 163.551 141.47 158.21C141.487 154.536 141.889 153.418 143.36 152.952C146.785 151.864 156.192 141.015 157.502 136.64C159.183 131.028 157.545 125.691 152.885 121.6L149.357 118.502L152.766 114.284C157.374 108.582 158.432 106.331 158.432 102.225C158.432 97.5335 156.989 94.039 153.853 91.1334L151.247 88.7181L153.217 85.4419C155.998 80.8155 156.652 77.1915 155.486 72.864C154.263 68.3203 150.262 64.3864 145.229 62.7782L141.492 61.5845V46.2345V30.8846L145.806 26.3838C150.603 21.3767 153.729 20.6733 157.524 23.7462C161.661 27.0962 160.703 31.6598 154.325 38.9816C147.347 46.9938 147.16 47.3386 148.456 49.7609C150.383 53.362 153.043 52.0497 159.588 44.2666C166.73 35.7751 167.232 34.8215 167.33 29.5544C167.41 25.1751 165.677 21.3937 162.022 17.9789C158.335 14.5353 149.848 13.8956 145.091 16.7015L141.641 18.7372L140.987 14.8671C140.133 9.81123 135.646 3.71312 131.244 1.62361C128.152 0.156877 123.176 -0.0344363 89.0295 0.00442429C52.4129 0.0462741 50.1172 0.155881 46.5809 2.02218ZM76.4756 14.9867C74.3014 16.2531 74.1898 20.464 76.3082 21.2771C78.3588 22.0643 100.001 22.0643 102.052 21.2771C103.909 20.5646 104.14 16.8141 102.432 15.1062C100.938 13.6116 79.0095 13.511 76.4756 14.9867ZM146.436 71.8915C149.196 74.8538 148.988 78.9023 145.888 82.5871C142.728 86.3416 138.257 86.7053 134.83 83.4869C131.789 80.6291 131.892 76.5936 135.104 72.7763C138.322 68.952 143.333 68.5614 146.436 71.8915ZM148.131 96.0926C150.723 97.9081 151.767 101.696 150.522 104.766C150.006 106.036 147.782 108.981 145.579 111.311C140.601 116.572 135.925 117.152 132.597 112.92C129.407 108.865 130.01 106.312 135.613 100.182C141.06 94.2223 144.062 93.2419 148.131 96.0926ZM148.467 127.503C151.987 131.022 151.101 135.369 145.667 141.249C140.235 147.127 136.752 147.947 132.837 144.269C129.173 140.825 129.81 137.032 135.092 130.849C138.959 126.323 140.173 125.51 143.064 125.51C145.146 125.51 147.251 126.286 148.467 127.503ZM83.4506 156.479C81.4368 157.652 81.1677 160.444 82.9025 162.178C83.5602 162.836 86.385 163.374 89.18 163.374C91.975 163.374 94.7998 162.836 95.4575 162.178C97.253 160.383 96.8983 157.597 94.7261 156.434C92.2789 155.125 85.7314 155.151 83.4506 156.479ZM113.353 190.629C107.705 197.172 103.447 199.287 94.2687 200.107L87.1871 200.74L82.4551 209.878C77.8427 218.784 77.3893 221.44 80.2889 222.553C82.8985 223.554 84.3284 222.127 87.7053 215.148C89.5497 211.334 91.3094 208.21 91.6143 208.205C96.0314 208.146 106.156 205.512 109.997 203.423C115.14 200.628 122.56 192.339 122.56 189.391C122.56 187.458 120.714 185.296 119.064 185.296C118.456 185.296 115.886 187.696 113.353 190.629Z" fill="white"/>
</svg>
